# xmcd
#
# Track frame offsets:
#	150
#	14815
#	28224
#	46289
#	62572
#	87580
#	106230
#	129496
#	149906
#	171816
#	196258
#	212830
#
# Disc length: 3117 seconds
# Revision: 0
# Processed by: cddbd v1.5.2PL0 Copyright (c) Steve Scherf et al.
# Submitted via: dBpowerAMP V12.0
#
DISCID=b60c2b0c
DTITLE=The Damn Quails - Out of the Birdcage
DYEAR=2015
DGENRE=Alternative Country
TTITLE0=Out of the Birdcage
TTITLE1=Tough Luck and Cryin' Shame
TTITLE2=Tightrope Walker
TTITLE3=Faster Than You'd Think
TTITLE4=Song of Home
TTITLE5=Oklahoma Blue
TTITLE6=Woody Guthrie (From the Dust)
TTITLE7=Rattlesnakes Through the Cotton
TTITLE8=Give it Some Time
TTITLE9=The Man in the Mirror (The Girl on the Plane)
TTITLE10=Just a Little While
TTITLE11=Vastness
EXTD=
EXTT0=
EXTT1=
EXTT2=
EXTT3=
EXTT4=
EXTT5=
EXTT6=
EXTT7=
EXTT8=
EXTT9=
EXTT10=
EXTT11=
PLAYORDER=
